{
  "asset": {
    "version": "2.0",
    "generator": "ChatGPT generated textured cube-to-sphere morph target animation",
    "copyright": "CC0 / Public Domain Dedication - generated from scratch"
  },
  "scene": 0,
  "scenes": [
    {
      "name": "Scene",
      "nodes": [
        0
      ]
    }
  ],
  "nodes": [
    {
      "name": "CubeToSphereNode",
      "mesh": 0
    }
  ],
  "meshes": [
    {
      "name": "CubeToSphereMesh",
      "weights": [
        0.0
      ],
      "extras": {
        "targetNames": [
          "Sphere"
        ]
      },
      "primitives": [
        {
          "attributes": {
            "POSITION": 0,
            "NORMAL": 1,
            "TEXCOORD_0": 2
          },
          "indices": 3,
          "material": 0,
          "mode": 4,
          "targets": [
            {
              "POSITION": 4,
              "NORMAL": 5
            }
          ]
        }
      ]
    }
  ],
  "materials": [
    {
      "name": "Mat_Checker_Texture",
      "pbrMetallicRoughness": {
        "baseColorTexture": {
          "index": 0,
          "texCoord": 0
        },
        "baseColorFactor": [
          1.0,
          1.0,
          1.0,
          1.0
        ],
        "metallicFactor": 0.0,
        "roughnessFactor": 0.65
      },
      "doubleSided": false
    }
  ],
  "textures": [
    {
      "sampler": 0,
      "source": 0
    }
  ],
  "samplers": [
    {
      "magFilter": 9729,
      "minFilter": 9987,
      "wrapS": 10497,
      "wrapT": 10497
    }
  ],
  "animations": [
    {
      "name": "Cube_to_Sphere",
      "samplers": [
        {
          "input": 6,
          "output": 7,
          "interpolation": "LINEAR"
        }
      ],
      "channels": [
        {
          "sampler": 0,
          "target": {
            "node": 0,
            "path": "weights"
          }
        }
      ]
    }
  ],
  "bufferViews": [
    {
      "buffer": 0,
      "byteOffset": 0,
      "byteLength": 8712,
      "target": 34962
    },
    {
      "buffer": 0,
      "byteOffset": 8712,
      "byteLength": 8712,
      "target": 34962
    },
    {
      "buffer": 0,
      "byteOffset": 17424,
      "byteLength": 5808,
      "target": 34962
    },
    {
      "buffer": 0,
      "byteOffset": 23232,
      "byteLength": 7200,
      "target": 34963
    },
    {
      "buffer": 0,
      "byteOffset": 30432,
      "byteLength": 8712,
      "target": 34962
    },
    {
      "buffer": 0,
      "byteOffset": 39144,
      "byteLength": 8712,
      "target": 34962
    },
    {
      "buffer": 0,
      "byteOffset": 47856,
      "byteLength": 16
    },
    {
      "buffer": 0,
      "byteOffset": 47872,
      "byteLength": 16
    },
    {
      "buffer": 0,
      "byteOffset": 47888,
      "byteLength": 974
    }
  ],
  "accessors": [
    {
      "bufferView": 0,
      "componentType": 5126,
      "count": 726,
      "type": "VEC3",
      "min": [
        -1.0,
        -1.0,
        -1.0
      ],
      "max": [
        1.0,
        1.0,
        1.0
      ]
    },
    {
      "bufferView": 1,
      "componentType": 5126,
      "count": 726,
      "type": "VEC3",
      "min": [
        -1.0,
        -1.0,
        -1.0
      ],
      "max": [
        1.0,
        1.0,
        1.0
      ]
    },
    {
      "bufferView": 2,
      "componentType": 5126,
      "count": 726,
      "type": "VEC2",
      "min": [
        0.0,
        0.0
      ],
      "max": [
        1.0,
        1.0
      ]
    },
    {
      "bufferView": 3,
      "componentType": 5123,
      "count": 3600,
      "type": "SCALAR",
      "min": [
        0
      ],
      "max": [
        725
      ]
    },
    {
      "bufferView": 4,
      "componentType": 5126,
      "count": 726,
      "type": "VEC3",
      "min": [
        -0.42264973081037416,
        -0.42264973081037416,
        -0.42264973081037416
      ],
      "max": [
        0.42264973081037416,
        0.42264973081037416,
        0.42264973081037416
      ]
    },
    {
      "bufferView": 5,
      "componentType": 5126,
      "count": 726,
      "type": "VEC3",
      "min": [
        -0.7071067811865475,
        -0.7071067811865475,
        -0.7071067811865475
      ],
      "max": [
        0.7071067811865475,
        0.7071067811865475,
        0.7071067811865475
      ]
    },
    {
      "bufferView": 6,
      "componentType": 5126,
      "count": 4,
      "type": "SCALAR",
      "min": [
        0.0
      ],
      "max": [
        3.0
      ]
    },
    {
      "bufferView": 7,
      "componentType": 5126,
      "count": 4,
      "type": "SCALAR",
      "min": [
        0.0
      ],
      "max": [
        1.0
      ]
    }
  ],
  "buffers": [
    {
      "byteLength": 48864,
      "uri": "data:application/octet-stream;base64,"
    }
  ],
  "images": [
    {
      "name": "CheckerTexture",
      "mimeType": "image/png",
      "uri": "data:image/png;base64,"
    }
  ]
}